<?xml version="1.0" encoding="UTF-8" standalone="no"?>
<!DOCTYPE svg PUBLIC "-//W3C//DTD SVG 1.1//EN" "http://www.w3.org/Graphics/SVG/1.1/DTD/svg11.dtd">
<svg width="100%" height="100%" viewBox="0 0 3200 2000" version="1.1" xmlns="http://www.w3.org/2000/svg" xmlns:xlink="http://www.w3.org/1999/xlink" xml:space="preserve" xmlns:serif="http://www.serif.com/" style="fill-rule:evenodd;clip-rule:evenodd;stroke-linejoin:round;stroke-miterlimit:2;">
    <g>
        <path d="M3026.16,1622.72C3010.49,1721.43 2925.44,1794.13 2825.51,1794.08L2249.95,1793.82L1745.62,1793.58L1730.48,1793.58L1622.51,1793.54L1608.58,1793.54L1505.54,1793.5L1487.92,1793.49L1344.35,1793.43L1319.04,1793.4L1201.95,1793.34L1184.46,1793.34L1170.11,1793.33L968.311,1793.23L933.07,1793.22L777.181,1793.15L768.299,1793.15L743.945,1793.14L503.569,1793.02C472.829,1793.01 443.067,1786.27 416.075,1773.88C375.186,1755.12 340.661,1723.36 318.707,1682.28C303.139,1653.14 286.354,1619.01 270.082,1580.88C244.045,1519.83 219.321,1448.5 203.025,1370.82C189.989,1308.73 182.349,1242.58 183.709,1174.39C183.937,1162.15 184.473,1149.83 185.321,1137.46C186.061,1126.73 187.028,1115.96 188.246,1105.15C192.15,1070.4 198.633,1035.31 208.135,1000.14C219.668,957.489 235.64,914.703 256.879,872.227C282.116,821.74 314.815,771.696 356.312,722.88C378.72,696.509 403.707,670.483 431.463,644.948C928.891,187.441 1411.41,379.896 1480.35,379.896C1812.69,379.896 1732.39,170.118 2100.4,138.028C2878.71,70.148 2762.94,787.108 2762.93,787.144C2762.93,787.168 2751.43,826.575 2747.89,841.247C2743.1,860.969 2739.42,879.64 2736.77,897.345C2736.57,898.694 2736.37,900.043 2736.18,901.392C2735.44,906.526 2734.79,911.564 2734.26,916.53C2730.24,951.902 2730.48,983.276 2734.11,1011.5C2740.88,1064.32 2759.48,1106.08 2784.3,1142.19C2800.86,1166.3 2820.2,1187.87 2840.64,1208.51C2846.37,1214.3 2852.19,1220.02 2858.07,1225.7C2865.66,1233.05 2873.33,1240.33 2881.01,1247.62C2891.25,1257.35 2901.51,1267.11 2911.57,1277.08C2913.73,1279.2 2915.88,1281.35 2918.02,1283.51C2921.7,1287.21 2925.34,1290.95 2928.93,1294.73C2943.75,1310.24 2957.89,1326.47 2970.69,1344.05C2973.5,1347.86 2976.21,1351.74 2978.87,1355.68C2981.99,1360.32 2985,1365.06 2987.92,1369.91C2997.19,1385.31 3005.4,1401.79 3012.18,1419.69C3032.1,1472.3 3039.73,1537.14 3026.16,1622.72Z" style="fill:rgb(235,243,250);fill-rule:nonzero;"/>
        <path d="M1418.81,1483.9L561.649,1355.31L183.709,1174.39C183.937,1162.15 184.473,1149.83 185.321,1137.46C186.061,1126.73 187.028,1115.96 188.246,1105.15C192.15,1070.4 198.633,1035.31 208.135,1000.14C219.668,957.489 235.64,914.703 256.879,872.227C256.879,872.227 449.344,792.32 532.567,792.32C545.071,792.32 555.1,794.122 561.649,798.27C610.58,829.259 748.206,1014.22 814.729,1014.22C816.372,1014.22 817.96,1014.1 819.514,1013.87C857.59,1008.23 889.839,976.236 927.569,976.236C953.72,976.236 982.501,991.601 1017.69,1041.76C1081,1132.02 1123.59,1179.49 1173.12,1179.49C1190.83,1179.49 1209.43,1173.42 1230.19,1161.06C1291.9,1124.32 1330.18,1075.34 1376,1075.34C1388.68,1075.34 1401.93,1079.09 1416.42,1087.89C1483.28,1128.48 1627.02,1360.08 1627.02,1360.08L1418.81,1483.9Z" style="fill:rgb(214,230,251);fill-rule:nonzero;"/>
        <path d="M1885.88,1483.91C1738.68,1483.91 1717.27,1357.69 1717.27,1357.69C1717.27,1357.69 1902.61,1090.22 1929.11,1090.22C1929.34,1090.22 1929.56,1090.24 1929.77,1090.28C1951.8,1094.68 2008.98,1186.11 2037.38,1186.11C2039.75,1186.11 2041.92,1185.47 2043.86,1184.09C2068.93,1166.18 2173.89,802.09 2213.97,798.27C2214.73,798.197 2215.5,798.161 2216.28,798.161C2233.57,798.161 2254.18,815.723 2272.87,833.285C2291.56,850.848 2308.34,868.411 2317.96,868.411C2319.6,868.411 2321.02,867.905 2322.22,866.807C2330.9,858.844 2370.02,777.08 2410.37,706.071C2442.54,649.425 2475.51,599.619 2494.39,599.619L2494.44,599.619C2513.39,599.702 2539.22,640.746 2566.46,692.784C2539.22,640.746 2513.39,599.702 2494.44,599.619L2494.39,599.619C2475.51,599.619 2442.54,649.425 2410.37,706.071L2410.36,706.095C2410.36,706.095 2470.65,642.916 2478.16,642.916C2478.65,642.916 2478.92,643.195 2478.92,643.79C2478.92,652.046 2479.52,676.466 2484.31,676.465C2485.06,676.465 2485.91,675.865 2486.88,674.507C2492.86,666.142 2502.15,648.461 2510.62,648.461C2512.3,648.461 2513.95,649.161 2515.54,650.773C2525.09,660.503 2566.46,692.796 2566.46,692.796C2612.44,780.613 2662.41,899.72 2690.12,906.203C2693.03,906.883 2696.04,907.194 2699.14,907.194C2710.64,907.194 2723.41,902.929 2736.77,897.345C2736.57,898.694 2736.37,900.043 2736.18,901.392C2735.44,906.526 2734.79,911.564 2734.26,916.53C2732.27,934.078 2731.32,950.642 2731.32,966.325C2731.32,982.255 2732.28,997.277 2734.11,1011.5C2740.88,1064.32 2759.48,1106.08 2784.3,1142.19C2800.86,1166.3 2820.2,1187.87 2840.64,1208.51C2800.75,1221.91 2742.54,1241.33 2674.19,1263.75C2674.04,1244.05 2670.84,1130.22 2616.86,1128.58C2615.98,1128.55 2615.09,1128.54 2614.2,1128.54C2591.41,1128.54 2568.11,1137.23 2544.92,1145.91C2521.73,1154.6 2498.65,1163.29 2476.28,1163.29C2463.79,1163.29 2451.52,1160.58 2439.59,1153.65C2434.43,1150.65 2428.39,1149.3 2421.66,1149.3C2389.38,1149.3 2341.13,1180.43 2297.29,1211.56C2253.44,1242.69 2214.01,1273.82 2199.38,1273.82C2198.84,1273.82 2198.33,1273.78 2197.85,1273.69C2169.2,1268.39 2240.83,1151.86 2236.55,1105.01C2236.08,1099.86 2233.57,1097.56 2229.44,1097.56C2195.96,1097.56 2056.61,1249.07 2043.86,1267.78C2038.22,1276.05 2030.09,1279.54 2021.64,1279.54C2008.62,1279.54 1994.86,1271.24 1988.35,1259.3C1987.55,1257.84 1986.45,1257.16 1985.07,1257.16C1967.9,1257.16 1909.56,1362.78 1909.56,1362.78L1863,1411.5L1970.44,1424.04L2196.06,1413.29L2505.82,1318.29C2270,1393.6 1998.74,1475.3 1909.57,1482.88C1901.33,1483.58 1893.44,1483.91 1885.88,1483.91Z" style="fill:rgb(192,218,252);fill-rule:nonzero;"/>
        <path d="M2505.82,1318.29C2565.37,1299.27 2622.67,1280.66 2674.19,1263.75C2674.21,1265.62 2674.19,1266.65 2674.19,1266.65L2505.82,1318.29Z" style="fill:rgb(192,218,252);fill-rule:nonzero;"/>
        <path d="M1970.44,1424.04L1863,1411.5L1909.56,1362.78C1909.56,1362.78 1967.9,1257.16 1985.07,1257.16C1986.45,1257.16 1987.55,1257.84 1988.35,1259.3C1994.86,1271.24 2008.62,1279.54 2021.64,1279.54C2030.09,1279.54 2038.22,1276.05 2043.86,1267.78C2056.61,1249.07 2195.96,1097.56 2229.44,1097.56C2233.57,1097.56 2236.08,1099.86 2236.55,1105.01C2240.83,1151.86 2169.2,1268.39 2197.85,1273.69C2198.33,1273.78 2198.84,1273.82 2199.38,1273.82C2214.01,1273.82 2253.44,1242.69 2297.29,1211.56C2341.13,1180.43 2389.38,1149.3 2421.66,1149.3C2428.39,1149.3 2434.43,1150.65 2439.59,1153.65C2451.52,1160.58 2463.79,1163.29 2476.28,1163.29C2498.65,1163.29 2521.73,1154.6 2544.92,1145.91C2568.11,1137.23 2591.41,1128.54 2614.2,1128.54C2615.09,1128.54 2615.98,1128.55 2616.86,1128.58C2670.84,1130.22 2674.04,1244.05 2674.19,1263.75C2622.67,1280.66 2565.37,1299.27 2505.82,1318.29L2196.06,1413.29L1970.44,1424.04Z" style="fill:rgb(166,203,253);fill-rule:nonzero;"/>
        <path d="M2881.01,1247.62C2881.01,1247.62 2103.93,1409.56 2022.85,1405.11C2022.85,1405.11 2080.19,1348.14 2151.82,1345.75C2223.44,1343.37 2254.48,1275.75 2338.05,1267.78C2421.62,1259.8 2471.76,1277.71 2506.38,1259.8C2541,1241.89 2580.4,1154.74 2661.58,1157.13C2731.21,1159.19 2757.8,1157.72 2784.3,1142.19C2805.5,1173.06 2831.27,1199.78 2858.07,1225.71C2865.66,1233.05 2873.33,1240.33 2881.01,1247.62Z" style="fill:rgb(128,180,255);fill-rule:nonzero;"/>
        <path d="M1330.05,1332.9L185.333,1137.54L185.321,1137.46C186.062,1126.73 187.028,1115.96 188.246,1105.15C192.15,1070.4 198.632,1035.31 208.135,1000.14C208.135,1000.14 330.215,975.564 389.309,1000.14C448.403,1024.73 443.031,1064.12 489.59,1069.49C536.137,1074.87 578.362,1070.38 613.377,1098.24C648.403,1126.09 700.932,1145.99 754.248,1142.81C807.575,1139.62 921.382,1126.89 965.959,1162.71C1010.52,1198.52 1098.87,1276.51 1175.27,1275.32C1251.68,1274.13 1294.04,1294.46 1306.59,1312.33C1318.74,1329.64 1329.41,1332.73 1330.05,1332.9Z" style="fill:rgb(175,205,251);fill-rule:nonzero;"/>
        <path d="M3032.64,1559C3031.85,1578.9 3029.75,1600.07 3026.16,1622.72C3010.49,1721.43 2925.45,1794.13 2825.51,1794.08L2249.95,1793.82L1745.62,1793.58L1730.48,1793.58L1622.51,1793.54L1608.58,1793.54L1505.54,1793.5L1487.92,1793.49L1344.35,1793.43L1319.04,1793.4L1201.95,1793.34L1184.46,1793.34L1170.11,1793.33L968.311,1793.23L933.069,1793.22L768.299,1793.15L743.945,1793.14L503.569,1793.02C472.829,1793.01 443.067,1786.27 416.075,1773.88C375.186,1755.12 340.661,1723.36 318.707,1682.28C278.2,1606.46 229.504,1497.01 203.025,1370.83C197.666,1345.29 193.225,1319.08 189.941,1292.32C184.533,1248.4 182.277,1203.01 184.247,1156.76C184.987,1139.67 186.3,1122.45 188.246,1105.15C300.955,1103.63 598.645,1112.38 952.947,1224.99C1405.7,1368.9 1823.32,1461.39 2127.77,1386.17C2381,1323.61 2695.5,1246.14 2881.01,1247.62C2891.25,1257.35 2901.51,1267.11 2911.57,1277.08C2913.73,1279.2 2915.88,1281.35 2918.02,1283.51C2921.7,1287.21 2925.34,1290.95 2928.93,1294.73C2943.75,1310.24 2957.89,1326.47 2970.69,1344.05C2973.5,1347.86 2976.21,1351.74 2978.87,1355.68C2981.99,1360.32 2985,1365.06 2987.92,1369.91C2997.19,1385.31 3005.4,1401.79 3012.18,1419.69C3026.82,1458.38 3034.83,1503.69 3032.64,1559Z" style="fill:rgb(191,226,168);fill-rule:nonzero;"/>
        <path d="M2236.55,650.778L1536.99,643.622C1536.99,643.622 1568.4,585.81 1642.81,585.81C1646.95,585.81 1651.21,585.988 1655.62,586.365C1655.62,586.365 1714.73,534.109 1794.44,534.109C1828.98,534.109 1867.39,543.918 1906.54,572.052C1906.54,572.052 1943.39,565.881 1993.07,565.881C2039.42,565.881 2096.93,571.25 2146.14,592.013C2214.1,620.693 2236.55,650.778 2236.55,650.778Z" style="fill:rgb(245,250,254);fill-rule:nonzero;"/>
        <path d="M1663.21,798.271L1070.65,793.236C1070.65,793.236 1097.25,752.571 1160.28,752.571C1163.79,752.571 1167.39,752.696 1171.13,752.961C1171.13,752.961 1221.2,716.203 1288.72,716.203C1317.98,716.203 1350.51,723.103 1383.67,742.892C1383.67,742.892 1414.88,738.552 1456.96,738.552C1496.22,738.552 1544.94,742.329 1586.62,756.934C1644.19,777.108 1663.21,798.271 1663.21,798.271Z" style="fill:rgb(245,250,254);fill-rule:nonzero;"/>
        <path d="M1125.13,592.444L703.074,587.409C703.074,587.409 722.019,546.744 766.916,546.744C769.412,546.744 771.982,546.869 774.64,547.134C774.64,547.134 810.305,510.376 858.394,510.376C879.236,510.376 902.406,517.276 926.028,537.065C926.028,537.065 948.257,532.725 978.228,532.725C1006.19,532.725 1040.89,536.502 1070.58,551.107C1111.58,571.28 1125.13,592.444 1125.13,592.444Z" style="fill:rgb(245,250,254);fill-rule:nonzero;"/>
        <path d="M1411.12,1383.53C1411.12,1383.53 966.751,1333.05 786.883,1267.78C607.014,1202.5 593.939,1221.69 637.485,1256.26C681.031,1290.84 932.135,1372.55 828.071,1381.84C724.008,1391.12 536.724,1363.82 466.143,1436.05C395.563,1508.28 284.683,1573.2 466.143,1587.22C647.604,1601.23 1177.5,1501.69 1177.5,1501.69L1411.12,1383.53Z" style="fill:rgb(218,237,142);fill-rule:nonzero;"/>
        <path d="M1901.11,1305.17C1901.11,1305.17 1965.58,1460.36 1972.74,1465.14C1979.91,1469.91 2006.26,1475.96 2008.05,1483.13C2009.84,1490.29 2051.02,1585.19 2051.02,1585.19L1893.45,1615.63L1768.1,1542.22L1901.11,1305.17Z" style="fill:rgb(163,111,75);fill-rule:nonzero;"/>
        <path d="M2825.51,1794.08L2350.06,1793.87L2249.95,1793.82L1745.62,1793.58L1730.48,1793.58L1622.51,1793.54L1608.58,1793.54L1505.54,1793.5L1487.92,1793.49L1344.35,1793.43L1319.04,1793.4L1201.95,1793.34L1184.46,1793.34L1170.11,1793.33L968.311,1793.23L933.069,1793.22L768.299,1793.15L743.945,1793.14L503.569,1793.02C472.829,1793.01 443.067,1786.27 416.075,1773.88C544.661,1714 936.257,1534.65 1246.9,1424.55C1624.15,1290.84 1839.04,1219.21 1901.11,1305.17C1963.19,1391.12 1736.37,1572.58 1860.52,1577.36C1984.68,1582.13 2283.13,1543.93 2395.35,1565.42C2507.35,1586.86 2495.68,1629.72 2526.5,1632.26C2526.61,1632.27 2526.67,1632.27 2526.67,1632.27C2557.71,1634.66 2796.48,1617.95 2825.13,1660.92C2853.78,1703.9 2825.51,1794.08 2825.51,1794.08Z" style="fill:rgb(216,169,135);fill-rule:nonzero;"/>
        <path d="M2410.36,706.095L2410.37,706.071C2442.54,649.425 2475.51,599.619 2494.39,599.619L2494.44,599.619C2513.39,599.702 2539.22,640.746 2566.46,692.784L2566.46,692.796C2566.46,692.796 2525.09,660.503 2515.54,650.773C2513.95,649.161 2512.3,648.461 2510.62,648.461C2502.15,648.461 2492.86,666.142 2486.88,674.507C2485.91,675.865 2485.06,676.465 2484.31,676.465C2479.52,676.466 2478.92,652.046 2478.92,643.79C2478.92,643.195 2478.65,642.916 2478.16,642.916C2470.65,642.916 2410.36,706.095 2410.36,706.095Z" style="fill:rgb(237,245,254);fill-rule:nonzero;"/>
        <path d="M2152.23,909.454C2152.23,909.454 2201.16,779.885 2226.63,783.864C2252.1,787.844 2286.91,846.614 2286.91,846.614C2286.91,846.614 2251.5,816.296 2244.93,826.444C2238.37,836.591 2237.17,856.637 2225.83,846.614C2214.49,836.591 2207.33,835.148 2201.36,846.614C2195.39,858.08 2152.23,909.454 2152.23,909.454Z" style="fill:rgb(248,252,255);fill-rule:nonzero;"/>
        <path d="M894.724,1651.37C863.685,1689.58 672.674,1701.51 678.643,1728.97C683.43,1750.97 771.725,1766.84 777.181,1793.15L768.299,1793.15L743.945,1793.14L503.569,1793.02C472.829,1793.01 443.067,1786.27 416.075,1773.88C375.186,1755.12 340.661,1723.36 318.707,1682.28C303.139,1653.14 286.354,1619.01 270.083,1580.88C270.083,1580.88 351.537,1498.83 552.098,1530.93C752.66,1563.03 780.464,1479.79 874.429,1505.73C968.395,1531.67 992.617,1509.57 1027.24,1530.93C1061.86,1552.29 895.918,1588.1 878.011,1604.81C860.104,1621.53 925.764,1613.17 894.724,1651.37Z" style="fill:rgb(80,155,103);fill-rule:nonzero;"/>
        <path d="M374.582,1539.41C374.582,1539.41 333.6,1441.3 372.358,1419.93C411.116,1398.57 368.004,1504.17 384.569,1543.35C392.772,1562.75 374.582,1539.41 374.582,1539.41Z" style="fill:rgb(80,155,103);fill-rule:nonzero;"/>
        <path d="M355.68,1563.48C355.68,1563.48 305.164,1501.48 328.715,1477.36C352.267,1453.23 343.436,1539.39 363.752,1564.11C373.813,1576.35 355.68,1563.48 355.68,1563.48Z" style="fill:rgb(80,155,103);fill-rule:nonzero;"/>
        <path d="M392.878,1557.84C392.878,1557.84 388.097,1460.46 428.655,1453.8C469.213,1447.14 398.266,1525.34 400.349,1564.29C401.38,1583.58 392.878,1557.84 392.878,1557.84Z" style="fill:rgb(80,155,103);fill-rule:nonzero;"/>
        <path d="M534.501,1656.09C534.501,1656.09 528.919,1597.34 550.254,1592.29C571.588,1587.23 545.563,1653.47 545.563,1653.47L534.501,1656.09Z" style="fill:rgb(130,179,120);fill-rule:nonzero;"/>
        <path d="M550.417,1657.57C550.417,1657.57 573.267,1611.36 593.769,1617.8C614.271,1624.23 561.047,1660.91 561.047,1660.91L550.417,1657.57Z" style="fill:rgb(130,179,120);fill-rule:nonzero;"/>
        <path d="M506.335,1659.33C506.335,1659.33 529.416,1646.6 549.313,1649.78C569.209,1652.96 572.393,1656.15 581.148,1659.33C589.902,1662.52 600.647,1668.88 595.872,1671.67C591.096,1674.45 551.302,1669.28 541.752,1671.67C532.201,1674.06 482.227,1668.06 506.335,1659.33Z" style="fill:rgb(130,179,120);fill-rule:nonzero;"/>
        <path d="M958.668,1738.97C958.668,1738.97 985.446,1614.24 1022.75,1643.49C1060.06,1672.73 980.524,1701.53 958.668,1738.97Z" style="fill:rgb(130,179,120);fill-rule:nonzero;"/>
        <path d="M947.715,1745.83C947.715,1745.83 935.474,1655.2 960.234,1650.77C984.995,1646.34 948.031,1718.4 947.715,1745.83Z" style="fill:rgb(130,179,120);fill-rule:nonzero;"/>
        <path d="M922.482,1738.69C922.482,1738.69 943.873,1728.31 959.439,1729.27C975.005,1730.23 1016.9,1735.19 1013.07,1743.47C1009.23,1751.76 967.312,1744.59 956.693,1745.94C946.076,1747.29 911.011,1746.52 922.482,1738.69Z" style="fill:rgb(130,179,120);fill-rule:nonzero;"/>
        <path d="M2367.47,1650.67C2367.47,1650.67 2366.68,1607.69 2386.57,1600.13C2406.47,1592.57 2369.46,1639.53 2367.47,1650.67Z" style="fill:rgb(80,155,103);fill-rule:nonzero;"/>
        <path d="M2383.45,1644.55C2383.45,1644.55 2398.64,1590.18 2426.52,1588.16C2454.4,1586.14 2390.15,1631.28 2383.45,1644.55Z" style="fill:rgb(80,155,103);fill-rule:nonzero;"/>
        <path d="M521.146,1458.61C529.151,1461.85 557.752,1459.23 558.678,1456.95C559.604,1454.66 540.898,1432.87 532.893,1429.62C524.888,1426.38 515.768,1430.24 512.525,1438.24C509.281,1446.25 513.141,1455.37 521.146,1458.61Z" style="fill:rgb(80,155,103);fill-rule:nonzero;"/>
        <path d="M593.297,1472.26C588.804,1479.64 586.773,1508.29 588.879,1509.57C590.984,1510.85 615.514,1495.91 620.009,1488.54C624.503,1481.16 622.167,1471.54 614.791,1467.04C607.415,1462.55 597.792,1464.89 593.297,1472.26Z" style="fill:rgb(80,155,103);fill-rule:nonzero;"/>
        <path d="M554.75,1528.33C562.979,1530.96 591.297,1526.16 592.047,1523.81C592.796,1521.46 572.486,1501.16 564.258,1498.53C556.029,1495.91 547.23,1500.45 544.604,1508.68C541.979,1516.9 546.521,1525.7 554.75,1528.33Z" style="fill:rgb(80,155,103);fill-rule:nonzero;"/>
        <path d="M596.406,1556.06C596.378,1555.41 593.213,1490.56 557.71,1457.08L558.465,1456.28C594.296,1490.07 597.478,1555.35 597.505,1556.01L596.406,1556.06Z" style="fill:rgb(80,155,103);fill-rule:nonzero;"/>
        <path d="M823.341,1405.25C815.569,1410.41 784.732,1413.8 783.26,1411.59C781.787,1409.37 796.883,1382.27 804.655,1377.11C812.427,1371.95 822.911,1374.06 828.071,1381.84C833.231,1389.61 831.114,1400.09 823.341,1405.25Z" style="fill:rgb(80,155,103);fill-rule:nonzero;"/>
        <path d="M749.925,1435.27C756.272,1442.1 764.601,1471.99 762.649,1473.8C760.698,1475.61 731.514,1465.09 725.167,1458.25C718.819,1451.42 719.215,1440.73 726.053,1434.38C732.89,1428.03 743.577,1428.43 749.925,1435.27Z" style="fill:rgb(80,155,103);fill-rule:nonzero;"/>
        <path d="M802.816,1486.29C794.674,1490.84 763.669,1491.88 762.369,1489.55C761.069,1487.23 778.184,1461.36 786.326,1456.8C794.468,1452.25 804.76,1455.16 809.314,1463.3C813.868,1471.44 810.959,1481.73 802.816,1486.29Z" style="fill:rgb(80,155,103);fill-rule:nonzero;"/>
        <path d="M764.711,1524.62C764.6,1523.92 753.962,1454.62 784.314,1411.53L783.343,1410.84C752.71,1454.33 763.426,1524.11 763.538,1524.81L764.711,1524.62Z" style="fill:rgb(80,155,103);fill-rule:nonzero;"/>
        <path d="M669.77,1561.61L667.492,1561.25C658.52,1445.17 623.075,1361.88 622.578,1360.75L624.652,1359.85C625.147,1361 660.852,1444.84 669.77,1561.61Z" style="fill:rgb(80,155,103);fill-rule:nonzero;"/>
        <path d="M598.53,1349.06C602.901,1354.02 623.369,1361.98 624.783,1360.73C626.196,1359.49 620.833,1338.19 616.463,1333.24C612.092,1328.28 604.534,1327.81 599.582,1332.18C594.63,1336.55 594.159,1344.11 598.53,1349.06Z" style="fill:white;fill-rule:nonzero;"/>
        <path d="M629.897,1331.8C625.95,1337.1 622.365,1358.77 623.876,1359.89C625.388,1361.02 645.128,1351.39 649.076,1346.09C653.023,1340.8 651.929,1333.31 646.633,1329.36C641.337,1325.41 633.844,1326.5 629.897,1331.8Z" style="fill:white;fill-rule:nonzero;"/>
        <path d="M653.441,1354.84C647.069,1353.1 625.589,1357.69 625.094,1359.51C624.598,1361.33 640.78,1376.18 647.152,1377.92C653.525,1379.66 660.099,1375.9 661.835,1369.52C663.572,1363.15 659.814,1356.58 653.441,1354.84Z" style="fill:white;fill-rule:nonzero;"/>
        <path d="M638.93,1383.57C638.294,1376.99 626.389,1358.54 624.512,1358.72C622.636,1358.9 614.486,1379.29 615.122,1385.87C615.757,1392.44 621.602,1397.26 628.177,1396.62C634.751,1395.99 639.565,1390.14 638.93,1383.57Z" style="fill:white;fill-rule:nonzero;"/>
        <path d="M606.35,1382.16C612.198,1379.08 624.795,1361.09 623.919,1359.42C623.042,1357.75 601.079,1357.91 595.231,1360.98C589.383,1364.05 587.131,1371.28 590.202,1377.13C593.272,1382.97 600.501,1385.22 606.35,1382.16Z" style="fill:white;fill-rule:nonzero;"/>
        <path d="M620.029,1358.8C620.372,1356.66 622.391,1355.19 624.539,1355.53C626.687,1355.88 628.15,1357.89 627.809,1360.04C627.466,1362.19 625.447,1363.65 623.299,1363.31C621.151,1362.97 619.687,1360.95 620.029,1358.8Z" style="fill:rgb(249,151,70);fill-rule:nonzero;"/>
        <path d="M669.119,1442.93C662.62,1450.93 655.605,1484.46 657.887,1486.31C660.167,1488.17 691.561,1474.46 698.061,1466.47C704.56,1458.48 703.35,1446.73 695.357,1440.23C687.365,1433.73 675.618,1434.94 669.119,1442.93Z" style="fill:rgb(80,155,103);fill-rule:nonzero;"/>
        <path d="M878.293,1569.25L880.571,1568.88C889.543,1452.81 924.988,1369.51 925.485,1368.38L923.411,1367.49C922.916,1368.63 887.212,1452.48 878.293,1569.25Z" style="fill:rgb(80,155,103);fill-rule:nonzero;"/>
        <path d="M949.533,1356.7C945.162,1361.65 924.694,1369.62 923.28,1368.37C921.867,1367.12 927.229,1345.82 931.6,1340.87C935.971,1335.92 943.529,1335.45 948.481,1339.82C953.433,1344.19 953.904,1351.75 949.533,1356.7Z" style="fill:white;fill-rule:nonzero;"/>
        <path d="M918.166,1339.44C922.113,1344.73 925.698,1366.4 924.187,1367.53C922.675,1368.65 902.935,1359.03 898.987,1353.73C895.04,1348.43 896.134,1340.94 901.43,1336.99C906.726,1333.05 914.219,1334.14 918.166,1339.44Z" style="fill:white;fill-rule:nonzero;"/>
        <path d="M894.622,1362.48C900.994,1360.74 922.474,1365.33 922.969,1367.15C923.465,1368.96 907.283,1383.82 900.911,1385.55C894.538,1387.29 887.964,1383.53 886.228,1377.16C884.491,1370.79 888.249,1364.21 894.622,1362.48Z" style="fill:white;fill-rule:nonzero;"/>
        <path d="M909.133,1391.2C909.769,1384.63 921.674,1366.17 923.551,1366.35C925.427,1366.53 933.577,1386.93 932.941,1393.5C932.306,1400.08 926.461,1404.89 919.886,1404.26C913.312,1403.62 908.498,1397.78 909.133,1391.2Z" style="fill:white;fill-rule:nonzero;"/>
        <path d="M941.713,1389.79C935.865,1386.72 923.268,1368.73 924.144,1367.06C925.021,1365.39 946.984,1365.54 952.832,1368.61C958.68,1371.68 960.932,1378.91 957.861,1384.76C954.791,1390.61 947.562,1392.86 941.713,1389.79Z" style="fill:white;fill-rule:nonzero;"/>
        <path d="M928.034,1366.44C927.691,1364.29 925.673,1362.83 923.524,1363.17C921.376,1363.51 919.913,1365.53 920.255,1367.68C920.597,1369.83 922.616,1371.29 924.764,1370.95C926.912,1370.61 928.376,1368.59 928.034,1366.44Z" style="fill:rgb(249,151,70);fill-rule:nonzero;"/>
        <path d="M878.944,1450.57C885.443,1458.56 892.458,1492.09 890.177,1493.95C887.896,1495.8 856.502,1482.1 850.003,1474.11C843.503,1466.11 844.713,1454.37 852.706,1447.87C860.698,1441.37 872.445,1442.58 878.944,1450.57Z" style="fill:rgb(80,155,103);fill-rule:nonzero;"/>
        <path d="M2183.37,1533.73C2193.85,1538.35 2231.89,1536.03 2233.21,1533.04C2234.53,1530.05 2210.61,1500.39 2200.12,1495.76C2189.64,1491.14 2177.39,1495.88 2172.77,1506.37C2168.14,1516.85 2172.89,1529.1 2183.37,1533.73Z" style="fill:rgb(80,155,103);fill-rule:nonzero;"/>
        <path d="M2278.49,1554.75C2272.23,1564.35 2268.38,1602.26 2271.12,1604.04C2273.86,1605.83 2306.99,1587.01 2313.25,1577.42C2319.51,1567.82 2316.8,1554.96 2307.2,1548.71C2297.6,1542.45 2284.75,1545.15 2278.49,1554.75Z" style="fill:rgb(80,155,103);fill-rule:nonzero;"/>
        <path d="M2225.1,1627.53C2235.91,1631.35 2273.65,1626.14 2274.74,1623.06C2275.83,1619.97 2249.72,1592.22 2238.92,1588.41C2228.11,1584.59 2216.26,1590.26 2212.45,1601.06C2208.63,1611.87 2214.3,1623.72 2225.1,1627.53Z" style="fill:rgb(80,155,103);fill-rule:nonzero;"/>
        <path d="M2279.21,1665.99C2279.2,1665.12 2277.64,1579.02 2231.92,1533.18L2232.95,1532.15C2279.09,1578.41 2280.66,1665.1 2280.67,1665.97L2279.21,1665.99Z" style="fill:rgb(80,155,103);fill-rule:nonzero;"/>
        <path d="M2349.71,1668.55L2347.72,1668.24C2339.87,1566.65 2308.84,1493.75 2308.41,1492.76L2310.22,1491.98C2310.66,1492.98 2341.91,1566.36 2349.71,1668.55Z" style="fill:rgb(80,155,103);fill-rule:nonzero;"/>
        <path d="M2287.36,1482.54C2291.19,1486.87 2309.1,1493.84 2310.34,1492.75C2311.58,1491.66 2306.88,1473.02 2303.06,1468.69C2299.23,1464.35 2292.62,1463.94 2288.28,1467.77C2283.95,1471.59 2283.54,1478.21 2287.36,1482.54Z" style="fill:white;fill-rule:nonzero;"/>
        <path d="M2314.81,1467.43C2311.36,1472.07 2308.22,1491.03 2309.55,1492.02C2310.87,1493 2328.15,1484.58 2331.6,1479.94C2335.05,1475.31 2334.1,1468.75 2329.46,1465.29C2324.83,1461.84 2318.27,1462.8 2314.81,1467.43Z" style="fill:white;fill-rule:nonzero;"/>
        <path d="M2335.42,1487.59C2329.84,1486.08 2311.04,1490.09 2310.61,1491.68C2310.18,1493.27 2324.34,1506.27 2329.92,1507.79C2335.49,1509.31 2341.25,1506.02 2342.77,1500.45C2344.29,1494.87 2341,1489.12 2335.42,1487.59Z" style="fill:white;fill-rule:nonzero;"/>
        <path d="M2322.72,1512.74C2322.16,1506.98 2311.75,1490.83 2310.1,1490.99C2308.46,1491.15 2301.33,1509 2301.88,1514.75C2302.44,1520.5 2307.56,1524.72 2313.31,1524.16C2319.06,1523.61 2323.28,1518.49 2322.72,1512.74Z" style="fill:white;fill-rule:nonzero;"/>
        <path d="M2294.21,1511.5C2299.33,1508.81 2310.35,1493.07 2309.58,1491.61C2308.82,1490.14 2289.59,1490.28 2284.48,1492.97C2279.36,1495.65 2277.39,1501.98 2280.08,1507.1C2282.76,1512.22 2289.09,1514.19 2294.21,1511.5Z" style="fill:white;fill-rule:nonzero;"/>
        <path d="M2306.18,1491.06C2306.48,1489.18 2308.25,1487.9 2310.13,1488.2C2312.01,1488.5 2313.29,1490.27 2312.99,1492.15C2312.69,1494.03 2310.92,1495.31 2309.04,1495.01C2307.16,1494.71 2305.88,1492.94 2306.18,1491.06Z" style="fill:rgb(249,151,70);fill-rule:nonzero;"/>
        <path d="M2349.14,1564.69C2343.45,1571.69 2337.31,1601.03 2339.31,1602.65C2341.31,1604.28 2368.78,1592.28 2374.47,1585.29C2380.16,1578.29 2379.1,1568.01 2372.1,1562.33C2365.11,1556.64 2354.83,1557.7 2349.14,1564.69Z" style="fill:rgb(80,155,103);fill-rule:nonzero;"/>
        <path d="M2825.51,1794.08L2350.06,1793.87C2352.46,1771.21 2395.5,1759.76 2391.51,1737.4C2386.39,1708.75 2174.58,1698 2259.58,1661.45C2343.07,1625.55 2520.16,1632.02 2526.5,1632.26C2526.61,1632.27 2526.67,1632.27 2526.67,1632.27C2557.71,1634.66 2796.48,1617.95 2825.13,1660.92C2853.78,1703.9 2825.51,1794.08 2825.51,1794.08Z" style="fill:rgb(80,155,103);fill-rule:nonzero;"/>
        <path d="M1415.99,1533.74C1415.99,1533.74 1418.91,1579.32 1427.73,1579.95C1428.91,1580.04 1472.46,1579.94 1472.46,1579.94L1528.06,1579.5C1528.06,1579.5 1527.67,1566.1 1511.41,1563.3C1495.15,1560.51 1467.92,1549.15 1458.03,1527.69C1447.62,1505.11 1415.99,1533.74 1415.99,1533.74Z" style="fill:rgb(175,89,25);fill-rule:nonzero;"/>
        <path d="M1698.93,1495.11C1698.93,1495.11 1707.42,1539.98 1716.25,1539.53C1717.43,1539.47 1760.64,1534.04 1760.64,1534.04L1815.77,1526.79C1815.77,1526.79 1813.74,1513.54 1797.26,1512.76C1780.78,1511.98 1752.37,1504.04 1739.92,1483.95C1726.83,1462.82 1698.93,1495.11 1698.93,1495.11Z" style="fill:rgb(175,89,25);fill-rule:nonzero;"/>
        <path d="M1600.34,1043.45C1600.34,1043.45 1586,1136.49 1532.11,1301.7C1478.22,1466.92 1470.99,1538.43 1470.99,1538.43L1412.79,1536.92C1412.79,1536.92 1411.9,1356.49 1436.72,1273.41C1461.54,1190.34 1441.46,974.1 1441.46,974.1L1600.34,1043.45Z" style="fill:rgb(22,53,96);fill-rule:nonzero;"/>
        <path d="M1616.13,958.999C1616.13,958.999 1695.36,1119 1715.51,1245.66C1735.67,1372.32 1751.53,1488.21 1751.53,1488.21C1751.53,1488.21 1732.06,1495.37 1695.58,1498.53C1695.58,1498.53 1633.84,1314.63 1627.29,1268.83C1620.74,1223.03 1436.75,1039.93 1451.11,994.736C1465.48,949.543 1616.13,958.999 1616.13,958.999Z" style="fill:rgb(28,70,138);fill-rule:nonzero;"/>
        <path d="M1501.33,650.356C1501.33,650.356 1419.51,728.908 1415.59,761.249C1411.68,793.589 1455.29,844.073 1455.29,844.073L1501.33,650.356Z" style="fill:rgb(237,125,43);fill-rule:nonzero;"/>
        <path d="M1515.38,651.059L1546.36,671.28L1591.07,662.848C1590.44,659.239 1587.45,644.283 1584.74,630.737C1584.57,629.938 1584.41,629.139 1584.25,628.357C1581.93,616.831 1579.92,606.929 1579.92,606.929L1538.11,588.591L1522.52,581.754C1522.56,581.997 1523.76,594.55 1523.92,596.381C1526.91,628.922 1515.38,651.059 1515.38,651.059Z" style="fill:rgb(255,178,125);fill-rule:nonzero;"/>
        <path d="M1579.56,640.683C1578.7,640.319 1525.68,624.798 1519.92,626.711C1514.17,628.625 1510.79,639.769 1510.79,639.769L1597.5,659.174C1597.5,659.174 1590.65,645.32 1579.56,640.683Z" style="fill:rgb(237,125,43);fill-rule:nonzero;"/>
        <path d="M1437.66,996.505C1446.73,1037.46 1596.21,1041.99 1634.66,1004.72C1639.03,1000.47 1639.21,980.745 1637.5,954.156C1634.15,902.208 1623.6,824.077 1623.11,784.148C1622.87,764.867 1620.17,745.15 1616.61,727.25C1609.01,689.097 1597.5,659.17 1597.5,659.17C1597.5,659.17 1524.44,635.726 1510.79,639.771C1445.02,659.25 1428.59,955.553 1437.66,996.505Z" style="fill:rgb(249,151,70);fill-rule:nonzero;"/>
        <path d="M1637.5,954.156C1634.15,902.208 1632.34,816.432 1631.85,776.503C1631.61,757.221 1620.17,745.15 1616.61,727.25L1572.67,719.595C1572.67,719.595 1530.11,895.069 1637.5,954.156Z" style="fill:rgb(237,125,43);fill-rule:nonzero;"/>
        <path d="M1558.65,892.701C1558.65,892.701 1608.41,849.224 1627.02,821.717L1641.08,831.219C1641.08,831.219 1601.85,896.879 1564.35,914.189C1526.85,931.5 1558.65,892.701 1558.65,892.701Z" style="fill:rgb(22,53,96);fill-rule:nonzero;"/>
        <path d="M1527.06,596.949C1536.26,612.467 1570.47,625.828 1584.74,630.737C1584.57,629.938 1584.41,629.139 1584.25,628.357C1581.93,616.831 1579.92,606.929 1579.92,606.929L1538.11,588.591C1528.88,588.485 1523.26,590.563 1527.06,596.949Z" style="fill:rgb(252,165,107);fill-rule:nonzero;"/>
        <path d="M1594.11,602.436C1594.11,602.436 1530.65,633.098 1512.17,593.284C1493.68,553.471 1473.04,530.615 1512.77,509.354C1552.51,488.095 1567.49,499.605 1576.9,511.394C1586.3,523.182 1610.14,593.434 1594.11,602.436Z" style="fill:rgb(255,178,125);fill-rule:nonzero;"/>
        <path d="M1573.69,507.771C1573.69,507.771 1576.65,556.86 1566.32,556.247C1555.98,555.635 1546.66,555.428 1550.3,569.816C1553.94,584.205 1570.35,599.005 1539.85,606.184C1509.35,613.363 1453.1,540.321 1459.34,523.979C1477.35,476.824 1601.17,449.425 1573.69,507.771Z" style="fill:rgb(22,53,96);fill-rule:nonzero;"/>
        <path d="M1471.5,822.103C1471.5,822.103 1463.91,823.017 1463.22,830.157C1462.52,837.296 1457.73,924.222 1462.08,926.521C1466.42,928.821 1484.49,927.891 1485.54,926.521C1486.59,925.152 1490.5,829.76 1487.87,824.009C1487.87,824.009 1479.06,820.593 1471.5,822.103Z" style="fill:rgb(22,53,96);fill-rule:nonzero;"/>
        <path d="M1637.93,921.263C1637.93,921.263 1648.41,929.036 1650.61,937.469C1654.18,951.129 1651.9,963.906 1638.5,969.041C1633.56,970.936 1632.88,959.2 1629.22,954.156C1625.56,949.112 1612.49,946.324 1615.48,938.646C1618.47,930.968 1624.32,915.961 1624.32,915.961L1637.93,921.263Z" style="fill:rgb(255,178,125);fill-rule:nonzero;"/>
        <path d="M1620.49,925.791C1620.49,925.791 1612.2,934.902 1611.35,940.768C1610.49,946.634 1610.15,955.703 1609.96,959.572C1609.77,963.44 1611.72,966.64 1615.3,960.336C1618.88,954.032 1621.96,945.652 1624.39,945.663C1626.83,945.673 1620.49,925.791 1620.49,925.791Z" style="fill:rgb(255,178,125);fill-rule:nonzero;"/>
        <path d="M1563.07,648.808C1563.07,648.808 1615.1,658.007 1655.25,716.897C1695.4,775.787 1710.27,813.449 1702.94,834.721C1695.61,855.992 1659.04,921.942 1651.66,930.867C1645.34,938.505 1627.02,937.96 1615.04,932.798C1615.04,932.798 1638.26,834.674 1628.92,824.074C1624.93,819.544 1573.43,776.052 1565.28,797.132C1551.79,832.012 1563.07,648.808 1563.07,648.808Z" style="fill:rgb(249,151,70);fill-rule:nonzero;"/>
        <path d="M1607.52,668.851C1607.52,668.851 1598.99,653.786 1578.78,650.778C1558.58,647.771 1546.36,671.28 1546.36,671.28L1561.47,677.018C1561.47,677.018 1571.19,659.174 1579.98,659.174C1591.07,659.174 1600.04,662.942 1607.52,668.851Z" style="fill:rgb(22,53,96);fill-rule:nonzero;"/>
        <path d="M1574.77,741.052C1574.77,741.052 1553.73,740.77 1526.76,740.14C1479.34,739.053 1413.6,736.924 1411.91,733.48C1409.27,728.07 1412.78,667.897 1428.99,663.552C1430.4,663.171 1432.42,662.856 1434.93,662.618C1461.11,660.108 1541.13,664.855 1559.6,670.798C1579.81,677.316 1574.77,741.052 1574.77,741.052Z" style="fill:rgb(22,53,96);fill-rule:nonzero;"/>
        <path d="M1526.76,740.14C1479.34,739.053 1413.6,736.924 1411.91,733.48C1409.27,728.07 1412.78,667.897 1428.99,663.552C1430.4,663.171 1432.42,662.856 1434.93,662.618C1465.9,663.964 1500.23,667.158 1511.52,670.798C1530.32,676.859 1527.29,732.339 1526.76,740.14Z" style="fill:rgb(28,70,138);fill-rule:nonzero;"/>
        <path d="M1574.77,741.048C1574.77,741.048 1412.34,724.907 1384.21,734.296C1356.08,743.685 1356.08,935.323 1364.87,948.509C1373.66,961.695 1533.23,973.943 1555.86,966.94C1578.49,959.937 1574.77,741.048 1574.77,741.048Z" style="fill:rgb(28,70,138);fill-rule:nonzero;"/>
        <path d="M1526.79,736.823C1526.79,736.823 1504.55,738.85 1502.51,754.673C1500.47,770.497 1486.43,963.149 1499.16,968.246C1511.9,973.342 1564.86,971.281 1567.94,968.246C1571.01,965.211 1582.48,753.794 1574.77,741.048C1574.77,741.048 1548.94,733.477 1526.79,736.823Z" style="fill:rgb(22,53,96);fill-rule:nonzero;"/>
        <path d="M1426.07,684.31C1426.07,684.31 1420.89,711.037 1427.57,715.108C1434.26,719.179 1450.51,720.337 1454.55,715.571C1458.58,710.804 1457.71,684.853 1457.71,684.853L1426.07,684.31Z" style="fill:rgb(22,53,96);fill-rule:nonzero;"/>
        <path d="M1426.07,684.31C1426.07,684.31 1428.33,695.119 1441.01,695.337C1453.68,695.554 1457.71,684.853 1457.71,684.853C1457.71,684.853 1440.51,677.072 1426.07,684.31Z" style="fill:rgb(41,88,155);fill-rule:nonzero;"/>
        <path d="M1438.72,691.121C1438.74,689.816 1439.82,688.777 1441.12,688.8C1442.42,688.822 1443.46,689.897 1443.44,691.202C1443.42,692.507 1442.34,693.546 1441.04,693.524C1439.73,693.501 1438.69,692.426 1438.72,691.121Z" style="fill:rgb(249,151,70);fill-rule:nonzero;"/>
        <path d="M1473.91,687.564C1473.91,687.564 1467.03,713.904 1473.44,718.396C1479.85,722.887 1495.99,725.082 1500.33,720.584C1504.66,716.086 1505.45,690.132 1505.45,690.132L1473.91,687.564Z" style="fill:rgb(22,53,96);fill-rule:nonzero;"/>
        <path d="M1473.91,687.564C1473.91,687.564 1475.48,698.497 1488.11,699.525C1500.75,700.553 1505.45,690.132 1505.45,690.132C1505.45,690.132 1488.79,681.266 1473.91,687.564Z" style="fill:rgb(41,88,155);fill-rule:nonzero;"/>
        <path d="M1486.1,695.171C1486.2,693.871 1487.34,692.902 1488.64,693.008C1489.94,693.114 1490.91,694.254 1490.81,695.555C1490.7,696.855 1489.56,697.823 1488.26,697.718C1486.96,697.612 1485.99,696.472 1486.1,695.171Z" style="fill:rgb(249,151,70);fill-rule:nonzero;"/>
        <path d="M1381.13,756.871C1381.13,756.871 1374.1,781.704 1378.06,788.188C1382.01,794.671 1471.24,799.066 1476.95,793.792C1482.67,788.518 1483.55,759.948 1483.55,759.948L1381.13,756.871Z" style="fill:rgb(22,53,96);fill-rule:nonzero;"/>
        <path d="M1381.13,756.871C1381.13,756.871 1393.33,772.255 1424.15,772.694C1454.98,773.134 1483.55,759.948 1483.55,759.948C1483.55,759.948 1411.46,747.201 1381.13,756.871Z" style="fill:rgb(41,88,155);fill-rule:nonzero;"/>
        <path d="M1419.37,766.871C1419.37,765.414 1420.56,764.233 1422.01,764.233C1423.47,764.233 1424.65,765.414 1424.65,766.871C1424.65,768.327 1423.47,769.508 1422.01,769.508C1420.56,769.508 1419.37,768.327 1419.37,766.871Z" style="fill:rgb(249,151,70);fill-rule:nonzero;"/>
        <path d="M1459.12,821.083C1459.12,821.083 1385.42,817.936 1381.13,821.083C1376.85,824.23 1375.2,925.763 1378.5,930.708C1381.79,935.652 1456.3,937.96 1456.3,937.96L1459.12,821.083Z" style="fill:rgb(41,88,155);fill-rule:nonzero;"/>
        <path d="M3032.64,1559C2987.48,1556.8 2919.51,1553.31 2860.94,1549.5C2763.05,1543.13 2806.03,1512.89 2851.39,1469.9C2896.76,1426.9 2710.52,1450.81 2572.04,1460.4C2433.56,1469.98 2225.83,1465.14 2299.82,1405.21C2373.81,1345.27 2911.57,1277.08 2911.57,1277.08C2913.73,1279.2 2915.88,1281.35 2918.02,1283.51C2921.7,1287.21 2925.34,1290.95 2928.93,1294.73C2943.75,1310.24 2957.89,1326.47 2970.69,1344.05C2973.5,1347.86 2976.21,1351.74 2978.87,1355.68C2981.99,1360.32 2985,1365.06 2987.92,1369.91C2997.19,1385.31 3005.4,1401.79 3012.18,1419.69C3026.82,1458.38 3034.83,1503.69 3032.64,1559Z" style="fill:rgb(218,237,142);fill-rule:nonzero;"/>
        <path d="M441.205,1231.15C395.708,1231.15 322.192,1233.54 344.625,1247.86C367.056,1262.19 386.157,1283.68 309.753,1286.06C234.22,1288.43 190.92,1292.24 189.941,1292.32C184.533,1248.4 182.277,1203.01 184.247,1156.76C184.247,1156.76 255.004,1136.6 297.982,1156.76C340.959,1176.93 371.832,1160.71 405.258,1182.2C438.686,1203.69 509.121,1206.08 523.447,1218.02C537.772,1229.96 486.689,1231.15 441.205,1231.15Z" style="fill:rgb(130,179,120);fill-rule:nonzero;"/>
        <path d="M2198.78,1722.12L2202.13,1665.18C2202.13,1665.18 2173.48,1641.34 2169.38,1639.7C2165.29,1638.06 2103.44,1628.6 2103.44,1628.6L2106.11,1682.08L2125.48,1720.94L2198.78,1722.12Z" style="fill:rgb(237,197,162);fill-rule:nonzero;"/>
        <path d="M2057.91,1720.24C2057.91,1720.24 2053.91,1678.78 2056.04,1674.25C2058.17,1669.71 2096.99,1627.29 2103.44,1628.6C2109.88,1629.91 2145.42,1643.18 2151.65,1648.2C2157.87,1653.22 2172.33,1692.46 2172.09,1696.54C2171.85,1700.62 2170.61,1721.66 2170.61,1721.66L2057.91,1720.24Z" style="fill:rgb(249,221,191);fill-rule:nonzero;"/>
        <path d="M2102.99,1735.45L2103.43,1711C2103.5,1707.17 2101.74,1703.54 2098.68,1701.24C2092.07,1696.26 2080.83,1687.92 2078.7,1687.17C2076.78,1686.49 2058.16,1684.24 2044.48,1682.65C2036.94,1681.78 2030.51,1688.06 2031.19,1695.62L2033.21,1717.75C2033.36,1719.39 2033.84,1720.98 2034.64,1722.43L2045.34,1741.87C2047.49,1745.78 2051.65,1748.17 2056.11,1748.06L2091.33,1747.19C2097.73,1747.03 2102.88,1741.85 2102.99,1735.45Z" style="fill:rgb(237,197,162);fill-rule:nonzero;"/>
        <path d="M2009.97,1749.44C2003.77,1749.62 1998.48,1745.03 1997.75,1738.87C1996.68,1729.8 1995.51,1718.02 1996.37,1715.98C1997.8,1712.58 2035.19,1682.21 2039.97,1682.99C2044.75,1683.76 2061.18,1690.45 2065.91,1693.96C2070.64,1697.46 2082.45,1725.88 2082.39,1728.89L2082.27,1735.99C2082.15,1742.38 2077.03,1747.55 2070.64,1747.73L2009.97,1749.44Z" style="fill:rgb(249,221,191);fill-rule:nonzero;"/>
        <path d="M1116.74,1588.21L1116.37,1567.54C1116.31,1564.3 1117.8,1561.23 1120.39,1559.28C1125.98,1555.07 1135.49,1548.02 1137.29,1547.39C1138.91,1546.81 1154.65,1544.91 1166.22,1543.57C1172.6,1542.83 1178.04,1548.14 1177.46,1554.53L1175.76,1573.24C1175.63,1574.63 1175.22,1575.98 1174.55,1577.21L1165.5,1593.64C1163.68,1596.95 1160.16,1598.97 1156.39,1598.88L1126.61,1598.14C1121.19,1598.01 1116.84,1593.63 1116.74,1588.21Z" style="fill:rgb(237,197,162);fill-rule:nonzero;"/>
        <path d="M1195.41,1600.05C1200.65,1600.2 1205.13,1596.32 1205.74,1591.11C1206.65,1583.43 1207.63,1573.47 1206.91,1571.75C1205.7,1568.87 1174.08,1543.2 1170.04,1543.85C1166,1544.5 1152.1,1550.16 1148.1,1553.13C1144.1,1556.09 1134.12,1580.13 1134.16,1582.67L1134.27,1588.67C1134.37,1594.08 1138.7,1598.45 1144.1,1598.6L1195.41,1600.05Z" style="fill:rgb(249,221,191);fill-rule:nonzero;"/>
        <path d="M1032.2,1603.41L1032,1592.17C1031.96,1590.41 1032.77,1588.74 1034.18,1587.68C1037.22,1585.39 1042.39,1581.55 1043.37,1581.21C1044.25,1580.9 1052.81,1579.86 1059.11,1579.13C1062.57,1578.73 1065.53,1581.62 1065.22,1585.09L1064.29,1595.27C1064.22,1596.02 1064,1596.76 1063.63,1597.42L1058.71,1606.36C1057.72,1608.16 1055.81,1609.26 1053.76,1609.21L1037.56,1608.81C1034.62,1608.74 1032.25,1606.35 1032.2,1603.41Z" style="fill:rgb(237,197,162);fill-rule:nonzero;"/>
        <path d="M1074.98,1609.84C1077.83,1609.92 1080.26,1607.82 1080.6,1604.98C1081.09,1600.81 1081.62,1595.39 1081.23,1594.45C1080.57,1592.89 1063.38,1578.93 1061.18,1579.28C1058.98,1579.64 1051.43,1582.71 1049.25,1584.33C1047.08,1585.94 1041.65,1599.01 1041.67,1600.39L1041.73,1603.66C1041.78,1606.6 1044.14,1608.97 1047.08,1609.06L1074.98,1609.84Z" style="fill:rgb(249,221,191);fill-rule:nonzero;"/>
        <path d="M1871.77,1639.94L1871.57,1628.71C1871.53,1626.94 1872.34,1625.27 1873.75,1624.21C1876.79,1621.92 1881.96,1618.09 1882.94,1617.74C1883.82,1617.43 1892.38,1616.4 1898.67,1615.67C1902.14,1615.26 1905.1,1618.15 1904.79,1621.63L1903.86,1631.8C1903.79,1632.56 1903.57,1633.29 1903.2,1633.96L1898.28,1642.9C1897.29,1644.7 1895.38,1645.8 1893.33,1645.75L1877.13,1645.35C1874.19,1645.27 1871.82,1642.89 1871.77,1639.94Z" style="fill:rgb(237,197,162);fill-rule:nonzero;"/>
        <path d="M1914.54,1646.38C1917.39,1646.46 1919.83,1644.35 1920.16,1641.52C1920.66,1637.35 1921.19,1631.93 1920.8,1630.99C1920.14,1629.43 1902.95,1615.47 1900.75,1615.82C1898.55,1616.17 1891,1619.25 1888.82,1620.86C1886.65,1622.48 1881.22,1635.55 1881.24,1636.93L1881.3,1640.19C1881.35,1643.13 1883.71,1645.51 1886.65,1645.59L1914.54,1646.38Z" style="fill:rgb(249,221,191);fill-rule:nonzero;"/>
        <path d="M806.331,1758.38L806.128,1747.15C806.096,1745.38 806.907,1743.71 808.315,1742.65C811.354,1740.37 816.522,1736.53 817.504,1736.18C818.384,1735.87 826.946,1734.84 833.237,1734.11C836.706,1733.7 839.665,1736.59 839.348,1740.07L838.423,1750.25C838.354,1751 838.129,1751.73 837.764,1752.4L832.844,1761.34C831.854,1763.14 829.942,1764.24 827.888,1764.19L811.696,1763.79C808.75,1763.71 806.384,1761.33 806.331,1758.38Z" style="fill:rgb(237,197,162);fill-rule:nonzero;"/>
        <path d="M849.108,1764.82C851.958,1764.9 854.394,1762.79 854.728,1759.96C855.219,1755.79 855.756,1750.37 855.361,1749.43C854.703,1747.87 837.51,1733.91 835.313,1734.26C833.115,1734.62 825.559,1737.69 823.384,1739.3C821.209,1740.92 815.779,1753.99 815.804,1755.37L815.863,1758.63C815.916,1761.57 818.27,1763.95 821.208,1764.04L849.108,1764.82Z" style="fill:rgb(249,221,191);fill-rule:nonzero;"/>
        <path d="M1065.38,1570.6L1065.24,1562.77C1065.22,1561.54 1065.78,1560.38 1066.76,1559.64C1068.88,1558.04 1072.48,1555.37 1073.16,1555.13C1073.78,1554.92 1079.74,1554.2 1084.12,1553.69C1086.54,1553.4 1088.6,1555.42 1088.38,1557.84L1087.74,1564.93C1087.69,1565.45 1087.53,1565.96 1087.28,1566.43L1083.85,1572.65C1083.16,1573.91 1081.83,1574.67 1080.4,1574.64L1069.12,1574.36C1067.07,1574.31 1065.42,1572.65 1065.38,1570.6Z" style="fill:rgb(237,197,162);fill-rule:nonzero;"/>
        <path d="M1095.18,1575.08C1097.16,1575.13 1098.86,1573.67 1099.09,1571.69C1099.43,1568.79 1099.81,1565.01 1099.53,1564.36C1099.08,1563.27 1087.1,1553.55 1085.57,1553.79C1084.04,1554.04 1078.77,1556.18 1077.26,1557.31C1075.75,1558.43 1071.96,1567.53 1071.98,1568.5L1072.02,1570.77C1072.06,1572.82 1073.7,1574.47 1075.74,1574.53L1095.18,1575.08Z" style="fill:rgb(249,221,191);fill-rule:nonzero;"/>
    </g>
</svg>
