<?xml version="1.0" encoding="utf-8"?>
<!-- Generator: Adobe Illustrator 16.0.0, SVG Export Plug-In . SVG Version: 6.00 Build 0)  -->
<!DOCTYPE svg PUBLIC "-//W3C//DTD SVG 1.1//EN" "http://www.w3.org/Graphics/SVG/1.1/DTD/svg11.dtd">
<svg version="1.1" id="Ebene_1" xmlns:serif="http://www.serif.com/"
	 xmlns="http://www.w3.org/2000/svg" xmlns:xlink="http://www.w3.org/1999/xlink" x="0px" y="0px" width="64px" height="64px"
	 viewBox="96 96 64 64" enable-background="new 96 96 64 64" xml:space="preserve">
<g>
	<path fill="#0067F4" d="M122.698,116.582l2.855,3.161l7.313-6.607c0.41-0.37,1.246-0.113,1.865,0.574l13.244,14.661
		c-0.25-10.829-9.089-19.534-19.977-19.534c-10.932,0-19.8,8.773-19.983,19.662l13.268-11.987
		C121.695,116.139,122.328,116.171,122.698,116.582z"/>
	<path fill="#61A3F2" d="M108.389,132.749h2.769l14.396-13.007l-2.855-3.161c-0.37-0.41-1.003-0.442-1.413-0.072l-13.268,11.987
		c-0.002,0.114-0.017,0.224-0.017,0.338C108,130.175,108.137,131.482,108.389,132.749z"/>
	<path fill="#61A3F2" d="M132.867,113.135l-7.313,6.607l7.926,8.773c0.37,0.41,0.338,1.043-0.072,1.412l-3.123,2.821h17.327
		c0.252-1.267,0.389-2.574,0.389-3.914c0-0.157-0.02-0.31-0.023-0.466l-13.244-14.661
		C134.113,113.022,133.277,112.765,132.867,113.135z"/>
	<path fill="#61A3F2" d="M133.407,129.928c0.41-0.369,0.442-1.002,0.072-1.412l-7.926-8.773l-14.396,13.007h19.127L133.407,129.928z
		"/>
	<path fill="#334B63" d="M108.389,132.749c0.137,0.692,0.306,1.374,0.512,2.038l2.256-2.038H108.389z"/>
	<path fill="#334B63" d="M116.512,145.19c3.252,2.289,7.208,3.645,11.488,3.645c9.705,0,17.791-6.915,19.611-16.086h-17.327
		L116.512,145.19z"/>
	<path fill="#334B63" d="M111.157,132.749l-2.256,2.038c1.326,4.258,4.044,7.894,7.611,10.403l13.772-12.441H111.157z"/>
</g>
<path fill="#FFFFFF" d="M126,135v-5h4v5c0,0.55,0.45,1,1,1h3c0.55,0,1-0.45,1-1v-7h1.7c0.46,0,0.68-0.57,0.329-0.87l-8.359-7.53
	c-0.38-0.34-0.96-0.34-1.34,0l-8.36,7.53c-0.34,0.3-0.13,0.87,0.33,0.87h1.7v7c0,0.55,0.45,1,1,1h3C125.55,136,126,135.55,126,135z"
	/>
</svg>
